<?xml version="1.0" encoding="UTF-8"?>
<svg xmlns="http://www.w3.org/2000/svg" width="1200" height="675" viewBox="0 0 1200 675" role="img" aria-labelledby="title desc">
<title id="title">Distribución triangular y trapezoidal</title><desc id="desc">Distribución triangular y trapezoidal</desc>
<defs><marker id="arr" markerWidth="10" markerHeight="10" refX="8" refY="3" orient="auto"><path d="M0,0 L0,6 L9,3 z" fill="#0b4f6c"/></marker><linearGradient id="water" x1="0" y1="0" x2="0" y2="1"><stop offset="0" stop-color="#dff4fb"/><stop offset="1" stop-color="#168aad"/></linearGradient></defs>
<rect width="1200" height="675" fill="#ffffff"/><text x="60" y="62" font-family="Arial" font-size="34" font-weight="700" fill="#0b4f6c">Distribución triangular y trapezoidal</text>

      <text x="300" y="130" font-family="Arial" font-size="27" font-weight="700" fill="#0b4f6c" text-anchor="middle">Borde en la superficie</text><text x="890" y="130" font-family="Arial" font-size="27" font-weight="700" fill="#0b4f6c" text-anchor="middle">Compuerta sumergida</text>
      <line x1="180" y1="180" x2="180" y2="535" stroke="#173042" stroke-width="5"  /><line x1="180" y1="180" x2="460" y2="535" stroke="#168aad" stroke-width="7"  /><line x1="180" y1="535" x2="460" y2="535" stroke="#173042" stroke-width="4"  />
      <line x1="720" y1="180" x2="720" y2="535" stroke="#173042" stroke-width="5"  /><line x1="720" y1="180" x2="840" y2="180" stroke="#168aad" stroke-width="7"  /><line x1="720" y1="535" x2="1040" y2="535" stroke="#168aad" stroke-width="7"  /><line x1="840" y1="180" x2="1040" y2="535" stroke="#168aad" stroke-width="7"  />
      <line x1="330" y1="360" x2="405" y2="360" stroke="#e8871e" stroke-width="5" marker-end="url(#arr)" /><text x="420" y="368" font-family="Arial" font-size="28" font-weight="700" fill="#e8871e" text-anchor="start">FR</text><line x1="885" y1="350" x2="975" y2="350" stroke="#e8871e" stroke-width="5" marker-end="url(#arr)" /><text x="990" y="358" font-family="Arial" font-size="28" font-weight="700" fill="#e8871e" text-anchor="start">FR</text>
      <text x="300" y="590" font-family="Arial" font-size="25" font-weight="700" fill="#173042" text-anchor="middle">a = 0; hcp = 2H/3</text><text x="890" y="590" font-family="Arial" font-size="25" font-weight="700" fill="#173042" text-anchor="middle">a &gt; 0; hcp = a + yR</text>
<text x="60" y="642" font-family="Arial" font-size="16" fill="#526875">Hidráulica aplicada a la Agronomía · Miguel Armando López Beltrán · 2026</text>
</svg>